<svg xmlns="http://www.w3.org/2000/svg" viewBox="0 0 331.02 97.07"><defs><style>.cls-1{fill:none;stroke:#3eb7af;stroke-miterlimit:10;stroke-width:11.07px;}.cls-2{fill:#3eb7af;}</style></defs><title>play_button</title><g id="Layer_2" data-name="Layer 2"><g id="Layer_1-2" data-name="Layer 1"><rect class="cls-1" x="5.53" y="5.53" width="319.95" height="86"/><path class="cls-2" d="M100.78,31.92h13.68c8,0,12.82,4.73,12.82,11.57v.1c0,7.75-6,11.76-13.53,11.76h-5.59v10h-7.37ZM114,48.8c3.68,0,5.83-2.2,5.83-5.07v-.1c0-3.3-2.3-5.07-6-5.07h-5.69V48.8Zm20.66-16.88H142V58.7H158.7v6.7H134.64Zm43-.24h6.79l14.35,33.71h-7.7L188,57.88H173.86l-3.06,7.51h-7.51Zm7.75,19.7-4.45-10.86-4.45,10.86Zm24.63.81L197.15,31.92h8.61l8,13.44,8.13-13.44h8.37L217.38,52V65.39H210Z"/></g></g></svg>