<svg xmlns="http://www.w3.org/2000/svg" viewBox="0 0 161.6 75.6"><defs><style>.cls-1{fill:#3eb7af;}.cls-2{fill:#fff;}</style></defs><title>mym_logo</title><g id="Layer_2" data-name="Layer 2"><g id="Layer_1-2" data-name="Layer 1"><polygon class="cls-1" points="133.18 0 133.18 52.38 123.55 52.38 123.55 0 95.13 0 95.13 35.73 85.5 35.73 85.5 0 76.1 0 76.1 45.13 95.13 45.13 95.13 52.38 66.47 52.38 66.47 0 38.05 0 38.05 52.38 28.42 52.38 28.42 0 0 0 0 61.83 9.4 61.83 9.4 9.45 19.02 9.45 19.02 61.77 47.45 61.77 47.45 9.45 57.08 9.45 57.08 61.77 104.52 61.77 104.52 9.45 114.15 9.45 114.15 61.77 142.57 61.77 142.57 9.45 152.2 9.45 152.2 61.83 161.6 61.83 161.6 0 133.18 0"/><polygon class="cls-2" points="5.09 69.45 2.89 72.75 0.69 69.45 0 69.45 0 75.5 0.67 75.5 0.67 70.61 2.87 73.84 2.9 73.84 5.1 70.6 5.1 75.5 5.79 75.5 5.79 69.45 5.09 69.45"/><path class="cls-2" d="M16.09,70.21l1.37,3.08H14.71Zm-.31-.79L13,75.5h.7l.72-1.6h3.29l.71,1.6h.73l-2.75-6.09Z"/><polygon class="cls-2" points="30.56 69.45 27.09 73.06 27.09 69.45 26.41 69.45 26.41 75.5 27.09 75.5 27.09 73.88 28.38 72.57 30.7 75.5 31.55 75.5 28.85 72.1 31.44 69.45 30.56 69.45"/><polygon class="cls-2" points="38.66 69.45 38.66 75.5 43.08 75.5 43.08 74.88 39.34 74.88 39.34 72.76 42.64 72.76 42.64 72.14 39.34 72.14 39.34 70.08 43.03 70.08 43.03 69.45 38.66 69.45"/><polygon class="cls-2" points="63.43 69.45 61.38 72.48 59.34 69.45 58.51 69.45 61.02 73.11 61.02 75.5 61.71 75.5 61.71 73.1 64.23 69.45 63.43 69.45"/><path class="cls-2" d="M70.57,72.49v0a3.08,3.08,0,1,1,6.17,0v0a3.08,3.08,0,1,1-6.17,0m5.46,0v0A2.4,2.4,0,0,0,73.65,70a2.37,2.37,0,0,0-2.37,2.48v0A2.4,2.4,0,0,0,73.66,75,2.37,2.37,0,0,0,76,72.49"/><path class="cls-2" d="M84.13,73V69.45h.68v3.47c0,1.3.69,2,1.85,2s1.82-.67,1.82-2V69.45h.68v3.46a2.52,2.52,0,1,1-5,.05"/><path class="cls-2" d="M96.83,69.45h2.6a2.38,2.38,0,0,1,1.72.6,1.67,1.67,0,0,1,.47,1.19v0A1.77,1.77,0,0,1,100,73l1.86,2.47H101l-1.75-2.35H97.51V75.5h-.68Zm2.54,3.08c.91,0,1.55-.47,1.55-1.24v0c0-.74-.57-1.19-1.55-1.19H97.51v2.45Z"/><polygon class="cls-2" points="117.75 69.45 118.44 69.45 120.64 72.75 122.85 69.45 123.54 69.45 123.54 75.5 122.86 75.5 122.86 70.6 120.65 73.84 120.62 73.84 118.42 70.61 118.42 75.5 117.75 75.5 117.75 69.45"/><path class="cls-2" d="M133.53,69.41h.64l2.75,6.09h-.73l-.71-1.6h-3.29l-.72,1.6h-.7Zm1.68,3.88-1.37-3.08-1.38,3.08Z"/><path class="cls-2" d="M144.16,69.45h2.6a2.38,2.38,0,0,1,1.72.6,1.67,1.67,0,0,1,.47,1.19v0A1.77,1.77,0,0,1,147.3,73l1.86,2.47h-.84l-1.75-2.35h-1.73V75.5h-.68Zm2.54,3.08c.91,0,1.55-.47,1.55-1.24v0c0-.74-.57-1.19-1.55-1.19h-1.87v2.45Z"/><polygon class="cls-2" points="156.45 69.45 157.13 69.45 157.13 73.06 160.6 69.45 161.48 69.45 158.89 72.1 161.6 75.5 160.74 75.5 158.42 72.57 157.13 73.88 157.13 75.5 156.45 75.5 156.45 69.45"/></g></g></svg>